<?xml version="1.0" standalone="no"?>
<!DOCTYPE svg PUBLIC "-//W3C//DTD SVG 20010904//EN"
 "http://www.w3.org/TR/2001/REC-SVG-20010904/DTD/svg10.dtd">
<svg version="1.0" xmlns="http://www.w3.org/2000/svg"
 width="590.000000pt" height="590.000000pt" viewBox="0 0 590.000000 590.000000"
 preserveAspectRatio="xMidYMid meet">
<metadata>
Created by potrace 1.14, written by Peter Selinger 2001-2017
</metadata>
<g transform="translate(0.000000,590.000000) scale(0.100000,-0.100000)"
fill="#000000" stroke="none">
<path d="M315 5248 c-250 -37 -375 -341 -221 -541 18 -23 410 -419 870 -879
l838 -838 -854 -854 c-602 -602 -862 -869 -881 -903 -80 -148 -37 -340 98
-437 71 -52 116 -67 206 -68 64 -1 84 3 140 29 59 27 137 103 1054 1020 545
545 997 999 1005 1009 68 85 85 259 34 342 -8 12 -12 22 -9 22 20 0 -131 154
-1026 1049 -890 890 -997 993 -1052 1020 -68 33 -125 41 -202 29z"/>
<path d="M2531 1404 c-206 -46 -321 -277 -236 -470 43 -97 132 -172 232 -198
36 -9 410 -12 1544 -11 l1496 1 64 31 c57 29 97 60 137 108 28 34 62 128 65
183 8 113 -52 239 -143 301 -101 69 22 64 -1623 65 -1034 1 -1503 -2 -1536
-10z"/>
</g>
</svg>
